<?xml version="1.0" standalone="no"?><!DOCTYPE svg PUBLIC "-//W3C//DTD SVG 1.1//EN" "http://www.w3.org/Graphics/SVG/1.1/DTD/svg11.dtd"><svg t="1578406145359" class="icon" viewBox="0 0 1024 1024" version="1.1" xmlns="http://www.w3.org/2000/svg" p-id="912" xmlns:xlink="http://www.w3.org/1999/xlink" width="200" height="200"><defs><style type="text/css"></style></defs><path d="M512 512m-448 0a448 448 0 1 0 896 0 448 448 0 1 0-896 0Z" fill="#FEF0C2" p-id="913"></path><path d="M625.1 464.7l1.2-95.6c0.2-16.4-18.5-26-31.7-16.1L518 410.1l107.1 54.6z" fill="#FFE085" p-id="914"></path><path d="M525.6 329l42.3 85.8c2.9 5.8 8.5 9.9 14.9 10.8l94.7 13.8c16.3 2.4 22.7 22.3 11 33.8L620 539.9c-4.7 4.6-6.8 11.1-5.7 17.5l16.2 94.3c2.8 16.2-14.2 28.5-28.7 20.9l-84.7-44.5c-5.8-3-12.7-3-18.4 0L414 672.6c-14.5 7.6-31.5-4.7-28.7-20.9l16.2-94.3c1.1-6.4-1-13-5.7-17.5l-68.5-66.8c-11.8-11.5-5.3-31.4 11-33.8l94.7-13.8c6.5-0.9 12-5 14.9-10.8l42.3-85.8c7.2-14.7 28.2-14.7 35.4 0.1z" fill="#FFCA2F" p-id="915"></path></svg>