<?xml version="1.0" standalone="no"?><!DOCTYPE svg PUBLIC "-//W3C//DTD SVG 1.1//EN" "http://www.w3.org/Graphics/SVG/1.1/DTD/svg11.dtd"><svg t="1578406148572" class="icon" viewBox="0 0 1024 1024" version="1.1" xmlns="http://www.w3.org/2000/svg" p-id="1036" xmlns:xlink="http://www.w3.org/1999/xlink" width="200" height="200"><defs><style type="text/css"></style></defs><path d="M512 512m-448 0a448 448 0 1 0 896 0 448 448 0 1 0-896 0Z" fill="#E9E9FF" p-id="1037"></path><path d="M370.8 703.7c-25.4 0-46.1-20.6-46.1-46.1V461.3c0-25.4 20.6-46.1 46.1-46.1 25.4 0 46.1 20.6 46.1 46.1v196.4c-0.1 25.4-20.7 46-46.1 46z" fill="#C6C9FF" p-id="1038"></path><path d="M659.3 415.3h-77.4c0.7-2 1.4-4.2 2-6.5 16.5-65.9-4.1-79.7-4.1-79.7s-41.9-32-50.1 26.3c-6.4 45.8-38.2 57.1-51.6 59.9h-0.9c-22.1 0-40 16.2-40 36.1v216.2c0 20 17.9 36.2 40 36.2h134.6c19.1 0 35.6-12.2 39.3-29.2l47.4-216.2c4.9-22.3-14-43.1-39.2-43.1z" fill="#887FFE" p-id="1039"></path></svg>